<svg width="32" height="33" viewBox="0 0 32 33" fill="none" xmlns="http://www.w3.org/2000/svg">
<g clip-path="url(#clip0_5742_1617)">
<path d="M24 15.8903C25.1645 15.8894 26.3131 16.1601 27.3547 16.6809C28.3963 17.2016 29.302 17.9581 30 18.8903" stroke="#252829" stroke-width="2" stroke-linecap="round" stroke-linejoin="round"/>
<path d="M2 18.8903C2.698 17.9581 3.60375 17.2016 4.6453 16.6809C5.68686 16.1601 6.83551 15.8894 8 15.8903" stroke="#252829" stroke-width="2" stroke-linecap="round" stroke-linejoin="round"/>
<path d="M16 23.8903C18.7614 23.8903 21 21.6517 21 18.8903C21 16.1288 18.7614 13.8903 16 13.8903C13.2386 13.8903 11 16.1288 11 18.8903C11 21.6517 13.2386 23.8903 16 23.8903Z" stroke="#252829" stroke-width="2" stroke-linecap="round" stroke-linejoin="round"/>
<path d="M9 27.8903C9.71786 26.6721 10.7412 25.6623 11.9689 24.9608C13.1965 24.2593 14.586 23.8903 16 23.8903C17.414 23.8903 18.8035 24.2593 20.0311 24.9608C21.2588 25.6623 22.2821 26.6721 23 27.8903" stroke="#252829" stroke-width="2" stroke-linecap="round" stroke-linejoin="round"/>
<path d="M20.125 10.8903C20.312 10.166 20.6984 9.50862 21.2402 8.99289C21.7821 8.47715 22.4577 8.12369 23.1903 7.97265C23.923 7.82161 24.6833 7.87903 25.3849 8.1384C26.0866 8.39778 26.7014 8.8487 27.1596 9.43997C27.6179 10.0312 27.9011 10.7392 27.9772 11.4833C28.0533 12.2275 27.9192 12.9781 27.5902 13.6499C27.2611 14.3217 26.7502 14.8877 26.1156 15.2837C25.481 15.6797 24.748 15.8899 24 15.8903" stroke="#252829" stroke-width="2" stroke-linecap="round" stroke-linejoin="round"/>
<path d="M7.99994 15.8903C7.25189 15.8899 6.51894 15.6797 5.88432 15.2837C5.2497 14.8877 4.73884 14.3217 4.40977 13.6499C4.08071 12.9781 3.94661 12.2275 4.02271 11.4833C4.09881 10.7392 4.38206 10.0312 4.84029 9.43997C5.29853 8.8487 5.91338 8.39778 6.61502 8.1384C7.31667 7.87903 8.07698 7.82161 8.80962 7.97265C9.54226 8.12369 10.2179 8.47715 10.7597 8.99289C11.3016 9.50862 11.6879 10.166 11.8749 10.8903" stroke="#252829" stroke-width="2" stroke-linecap="round" stroke-linejoin="round"/>
</g>
<defs>
<clipPath id="clip0_5742_1617">
<rect width="32" height="32" fill="white" transform="translate(0 0.890259)"/>
</clipPath>
</defs>
</svg>
