<svg width="33" height="33" viewBox="0 0 33 33" fill="none" xmlns="http://www.w3.org/2000/svg">
<path fill-rule="evenodd" clip-rule="evenodd" d="M14.4817 2.68864C15.6839 1.99457 17.165 1.99457 18.3672 2.68864L27.7187 8.08775C28.9209 8.78182 29.6615 10.0645 29.6615 11.4527V22.2509C29.6615 23.639 28.9209 24.9217 27.7187 25.6158L18.3672 31.0149C17.165 31.7089 15.6839 31.7089 14.4817 31.0149L5.13023 25.6158C3.92806 24.9217 3.1875 23.639 3.1875 22.2509V11.4527C3.1875 10.0645 3.92806 8.78182 5.13023 8.08775L14.4817 2.68864ZM17.3958 4.3711C16.7948 4.02406 16.0542 4.02406 15.4531 4.3711L6.1016 9.7702C5.50051 10.1172 5.13023 10.7586 5.13023 11.4527V22.2509C5.13023 22.9449 5.50051 23.5863 6.10159 23.9333L15.4531 29.3324C16.0542 29.6794 16.7948 29.6794 17.3958 29.3324L26.7474 23.9333C27.3484 23.5863 27.7187 22.9449 27.7187 22.2509V11.4527C27.7187 10.7586 27.3484 10.1172 26.7474 9.7702L17.3958 4.3711Z" fill="#252829"/>
<path fill-rule="evenodd" clip-rule="evenodd" d="M16.4233 22.2654C19.4132 22.2654 21.8369 19.8416 21.8369 16.8518C21.8369 13.862 19.4132 11.4382 16.4233 11.4382C13.4335 11.4382 11.0098 13.862 11.0098 16.8518C11.0098 19.8416 13.4335 22.2654 16.4233 22.2654ZM16.4233 24.2654C20.5177 24.2654 23.8369 20.9462 23.8369 16.8518C23.8369 12.7574 20.5177 9.43823 16.4233 9.43823C12.3289 9.43823 9.00977 12.7574 9.00977 16.8518C9.00977 20.9462 12.3289 24.2654 16.4233 24.2654Z" fill="#252829"/>
</svg>
